<svg xmlns="http://www.w3.org/2000/svg" viewBox="0 0 72 72"><title>delete</title><g id="Layer_2" data-name="Layer 2"><g id="Layer_1-2" data-name="Layer 1"><path d="M36,0A36,36,0,1,0,72,36,36,36,0,0,0,36,0Zm9.9,38.32,9.34,9.34a3.39,3.39,0,0,1,0,4.77L52.58,55.1a3.39,3.39,0,0,1-4.78,0l-9.34-9.34a3.39,3.39,0,0,0-4.77,0L24.34,55.1a3.39,3.39,0,0,1-4.77,0l-2.66-2.66a3.39,3.39,0,0,1,0-4.77l9.34-9.34a3.39,3.39,0,0,0,0-4.77L16.91,24.2a3.39,3.39,0,0,1,0-4.78l2.66-2.66a3.39,3.39,0,0,1,4.78,0l9.34,9.34a3.39,3.39,0,0,0,4.77,0l9.34-9.34a3.38,3.38,0,0,1,4.77,0l2.66,2.66a3.39,3.39,0,0,1,0,4.77L45.9,33.54A3.38,3.38,0,0,0,45.9,38.32Z"/></g></g></svg>